HIERARCHY
ROOT Hips
{
	OFFSET -240.519104 92.930817 402.348785
	CHANNELS 6 Xposition Yposition Zposition Zrotation Yrotation Xrotation 
	JOINT LeftUpLeg
	{
		OFFSET 0.103457 1.857819 10.548500
		CHANNELS 3 Zrotation Yrotation Xrotation
		JOINT LeftLeg
		{
			OFFSET 43.500000 -0.000019 -0.000010
			CHANNELS 3 Zrotation Yrotation Xrotation
			JOINT LeftFoot
			{
				OFFSET 42.372196 0.000008 0.000000
				CHANNELS 3 Zrotation Yrotation Xrotation
				JOINT LeftToe
				{
					OFFSET 17.300003 0.000001 0.000006
					CHANNELS 3 Zrotation Yrotation Xrotation
					End Site
					{
						OFFSET 0.000000 0.000000 0.000000
					}
				}
			}
		}
	}
	JOINT RightUpLeg
	{
		OFFSET 0.103456 1.857821 -10.548498
		CHANNELS 3 Zrotation Yrotation Xrotation
		JOINT RightLeg
		{
			OFFSET 43.500046 -0.000031 0.000019
			CHANNELS 3 Zrotation Yrotation Xrotation
			JOINT RightFoot
			{
				OFFSET 42.372261 -0.000004 0.000021
				CHANNELS 3 Zrotation Yrotation Xrotation
				JOINT RightToe
				{
					OFFSET 17.300016 0.000003 0.000000
					CHANNELS 3 Zrotation Yrotation Xrotation
					End Site
					{
						OFFSET 0.000000 0.000000 0.000000
					}
				}
			}
		}
	}
	JOINT Spine
	{
		OFFSET 6.901967 -2.603733 -0.000002
		CHANNELS 3 Zrotation Yrotation Xrotation
		JOINT Spine1
		{
			OFFSET 12.588102 0.000004 -0.000004
			CHANNELS 3 Zrotation Yrotation Xrotation
			JOINT Spine2
			{
				OFFSET 12.343203 -0.000004 0.000000
				CHANNELS 3 Zrotation Yrotation Xrotation
				JOINT Neck
				{
					OFFSET 25.832895 -0.000011 0.000005
					CHANNELS 3 Zrotation Yrotation Xrotation
					JOINT Head
					{
						OFFSET 11.766605 0.000003 0.000008
						CHANNELS 3 Zrotation Yrotation Xrotation
						End Site
						{
							OFFSET 0.000000 0.000000 0.000000
						}
					}
				}
				JOINT LeftShoulder
				{
					OFFSET 19.745905 -1.480360 6.000111
					CHANNELS 3 Zrotation Yrotation Xrotation
					JOINT LeftArm
					{
						OFFSET 11.284124 0.000007 -0.000017
						CHANNELS 3 Zrotation Yrotation Xrotation
						JOINT LeftForeArm
						{
							OFFSET 33.000050 0.000003 0.000017
							CHANNELS 3 Zrotation Yrotation Xrotation
							JOINT LeftHand
							{
								OFFSET 25.200005 0.000010 0.000011
								CHANNELS 3 Zrotation Yrotation Xrotation
								End Site
								{
									OFFSET 0.000000 0.000000 0.000000
								}
							}
						}
					}
				}
				JOINT RightShoulder
				{
					OFFSET 19.746092 -1.480387 -6.000073
					CHANNELS 3 Zrotation Yrotation Xrotation
					JOINT RightArm
					{
						OFFSET 11.284132 -0.000045 -0.000015
						CHANNELS 3 Zrotation Yrotation Xrotation
						JOINT RightForeArm
						{
							OFFSET 33.000092 0.000031 0.000005
							CHANNELS 3 Zrotation Yrotation Xrotation
							JOINT RightHand
							{
								OFFSET 25.199797 0.000145 0.000419
								CHANNELS 3 Zrotation Yrotation Xrotation
								End Site
								{
									OFFSET 0.000000 0.000000 0.000000
								}
							}
						}
					}
				}
			}
		}
	}
}
MOTION
Frames: 11
Frame Time: 0.033333
-89.38414800000001 87.90286300000001 -1065.4226680000002 96.568281 -0.8173500000000001 123.49260699999999 -179.03647 11.309908999999998 172.588676 -26.949579 6.434194999999999 -2.024594 90.973393 0.9423449999999998 -1.9347540000000003 21.454558 0.003112 1.8e-05 145.88650199999998 9.955202 -171.743987 -53.903419 -3.2658550000000006 2.178102 77.11928300000001 -0.6116830000000001 3.2322170000000003 21.454555 -0.003073 -1e-06 7.567257 -1.4982750000000002 -1.0183979999999997 5.150457 -2.9499770000000005 -2.102723 4.832141000000001 -2.9627679999999996 -2.084867 -3.7370260000000006 -1.090913 -5.268096 -1.8139080000000003 3.535426 -6.367618 -176.08281 -74.35399899999999 -5.394658 -10.569701999999998 50.517896 30.780883 -35.501540999999996 -14.657951 1.3516709999999998 9.622971 -5.031219 6.422436 -166.871985 72.182587 14.852498999999998 -22.055923999999994 -53.85856900000001 -20.088648 -23.911365 6.94937 -0.6044050000000001 9.615351999999998 6.146848 -35.291584 
-86.56263699999997 87.283989 -1060.323363 96.54945 -0.9479080000000001 124.968201 -173.885278 10.422193999999998 174.61512499999998 -24.659794 5.206443 -1.8724680000000005 92.276921 0.8328240000000001 -2.3625170000000004 21.45456 0.0031069999999999995 1.6e-05 146.733746 9.555795999999999 -171.656055 -38.182458 -2.10972 2.062109 75.546421 -0.14486299999999996 4.610901000000001 21.454553 -0.003088 -0.0 7.4548510000000014 -1.3988710000000002 -1.3181030000000002 4.930539 -2.740688 -2.6949510000000005 4.6124339999999995 -2.75705 -2.678355 -4.2027779999999995 -0.148591 -5.595865 -1.9620120000000003 2.9212730000000002 -6.093770999999999 -176.71271699999997 -74.54080500000002 -4.751387 -11.667159 48.903605 31.483351 -36.79360799999999 -14.841434000000001 1.394261 8.896236 -5.849246 7.315083 -166.772797 70.855378 14.957311999999998 -17.444039999999998 -54.187101000000006 -23.913457 -18.109946 5.676544 -0.44953 11.131479 3.8670380000000004 -37.222045 
-83.88516999999999 86.694382 -1055.423476 96.058278 -0.910634 126.21899999999997 -169.204768 9.205008 176.46807300000003 -22.400927 4.659878999999999 -1.952943 92.742726 0.803011 -3.173915 21.454559999999997 0.0031139999999999996 1.7999999999999997e-05 148.063434 8.306308 -172.465733 -22.815351999999994 -1.6945079999999997 2.060601 73.22115099999999 0.7005990000000001 7.127000999999999 21.454551000000006 -0.003092 -0.0 7.312786000000001 -1.2467440000000003 -1.526581 4.646732999999999 -2.4316600000000004 -3.1022629999999998 4.328824999999999 -2.450477 -3.0875389999999996 -4.543333 0.853994 -6.001473000000001 -2.1790759999999993 2.3298700000000006 -5.8676140000000006 -177.53779 -74.59419 -3.906346 -12.697536 47.430271 31.766226 -37.429187 -15.010978 1.4207899999999998 8.024686000000003 -7.255445 8.573439999999998 -166.05351000000002 69.795033 15.703218 -12.635461 -54.857037 -27.420534000000004 -13.207003999999996 4.761035000000001 -0.349046 12.512359 2.235282 -40.377787000000005 
-81.30844899999997 85.97348800000002 -1050.793273 95.699768 -0.9322289999999999 126.95310899999998 -165.67950300000004 8.391690999999998 176.575171 -21.772157 5.148435 -1.54284 92.600542 0.3781200000000001 -4.220806999999999 21.454563 0.003112 1.8e-05 148.514827 7.097901999999999 -173.964768 -13.086076000000004 -2.5118860000000005 1.19351 72.10964000000001 0.7225569999999999 4.952605 21.454558 -0.003093999999999999 -0.0 7.184103999999999 -1.1525359999999998 -1.6265039999999997 4.3885 -2.2431159999999997 -3.2957579999999997 4.070713999999999 -2.263109 -3.2821659999999997 -4.90661 1.576258 -6.368610999999999 -2.1327820000000006 1.9889959999999998 -5.780564000000001 -178.390321 -74.658366 -3.0336149999999993 -13.423629 46.539314 31.151672999999995 -37.521931 -15.202082000000003 1.435491 7.236405 -8.891953000000003 9.923198999999999 -164.749682 69.231276 17.054449999999996 -7.423344 -55.780171 -31.018570000000004 -9.85938 4.158445 -0.2924709999999999 13.778599 1.0315339999999995 -43.969216 
-78.612694 84.82395899999999 -1046.173476 95.901778 -1.104346 127.207 -163.299332 8.410204000000002 174.978969 -23.729501 6.712614000000002 -0.588515 92.200211 -0.465164 -5.387227 21.454556999999998 0.003116 1.5999999999999996e-05 148.100221 6.606095000000002 -172.96515599999998 -11.508616000000004 -2.3596679999999997 2.4416820000000006 74.036635 0.268615 6.717735 21.454550000000005 -0.0030810000000000004 2e-06 7.0722520000000015 -1.160835 -1.673923 4.165957 -2.261254 -3.388788999999999 3.848193 -2.2818010000000006 -3.37508 -5.314028 1.809154 -6.521654999999999 -1.7741540000000002 1.8572989999999998 -5.755642999999998 -178.556417 -74.553851 -2.8615790000000008 -13.375482000000002 46.107834000000004 30.12775599999999 -37.492995 -15.466921 1.451958 6.778683 -10.501647 10.832345 -163.267107 69.094419 18.589886000000003 -1.54967 -56.456387 -35.45657400000001 -8.268937000000001 3.763328000000001 -0.261277 14.894648 -0.29989400000000005 -46.79419599999999 
-76.287811 84.027946 -1041.8680720000002 95.311738 -0.593812 126.99241 -162.131779 7.460405000000001 172.89904 -27.121398999999997 8.362546 0.12469099999999998 90.26584 -1.225432 -6.224841 21.454551 0.0031020000000000006 1.7e-05 147.11584099999996 5.344416 -168.927517 -16.412142 -2.441563 1.9219550000000005 71.114174 -0.053257 4.065923 21.454551000000006 -0.003092 -1e-06 6.993147 -0.9492109999999999 -1.6334739999999996 4.000501 -1.841982 -3.298832000000001 3.6827979999999996 -1.861995 -3.2876740000000004 -5.456444 1.6527200000000002 -6.355623 -1.4633449999999997 1.734061 -5.625375 -177.594399 -73.975723 -3.8385879999999992 -12.899144 45.777263 28.94863 -37.510091 -15.728502 1.469354 6.6977970000000004 -11.889615000000001 10.925133 -162.117709 69.07674900000002 19.779678000000008 3.7010290000000006 -56.569683000000005 -39.690321 -7.988785 3.430084 -0.238178 15.685005000000006 -1.911505 -47.681069 
-74.26286300000001 83.807251 -1037.369369 94.005184 0.8672620000000002 126.186406 -163.19427 4.788497 170.842074 -34.334562 8.720627 0.08685300000000003 83.836938 -1.3544829999999999 -5.177606 21.454553 0.003102 1.7999999999999997e-05 146.60915000000003 3.1061979999999996 -166.176208 -21.984099 -3.289397999999999 -0.400456 64.378392 0.13052500000000003 -0.444279 21.454555000000006 -0.003099 -1e-06 6.982875 -0.517412 -1.4781830000000002 3.9658410000000006 -0.984387 -2.9731310000000004 3.6481679999999996 -1.0024609999999998 -2.967145 -5.103717 1.504508 -5.965109 -1.3911610000000005 1.349263 -5.240271000000001 -175.951287 -73.065491 -5.512636 -12.226164999999998 45.624055 27.783633 -37.171532 -15.800479999999999 1.465653 6.820388 -13.000591 10.254387999999999 -161.513907 68.91462099999998 20.406482999999998 7.268064000000001 -56.229239 -42.388031 -8.178618 3.08884 -0.21548899999999999 16.101073 -3.429693 -46.397588 
-72.36447100000001 83.61950699999998 -1032.676467 92.54142 2.8659470000000007 124.64931299999998 -166.686163 1.1585999999999999 168.975397 -45.874385 8.506454999999999 -0.24564800000000003 73.0876 -1.8054649999999999 -5.74516 21.454551 0.0031090000000000002 1.9e-05 146.382866 -0.41851 -167.823431 -28.458244000000004 -3.7835100000000006 0.39258899999999997 62.578043 -0.692533 -1.073699 21.454553000000008 -0.0031030000000000007 1e-06 7.074011999999999 -0.012342 -1.225056 4.134983000000001 0.018670000000000003 -2.4497579999999997 3.817198 0.0037489999999999993 -2.449832 -4.48553 1.6282589999999997 -5.502561 -1.364693 0.6402360000000001 -4.589613999999999 -174.293792 -72.455835 -7.209848999999999 -11.597888000000001 46.220833 26.408909 -36.186984 -15.563363 1.426448 7.084771999999998 -13.83001 9.208589 -161.23309 68.794929 20.698552 8.4735 -55.946134 -42.65799100000001 -8.299331000000004 2.8436599999999994 -0.19910700000000003 16.418592999999998 -4.528288999999999 -43.978 
-70.26003299999999 83.74276000000002 -1027.845672 91.681219 4.572742 122.479007 -172.003438 -2.6942 168.379586 -60.37029400000001 7.572756000000002 0.198714 62.353576 -3.23354 -6.920444999999999 21.454558 0.0031060000000000003 1.7e-05 147.307277 -3.931305000000001 -171.825061 -34.558997999999995 -3.07491 2.3007529999999994 66.152035 -2.9102369999999995 -3.39451 21.454551 -0.003106 -1e-06 7.209321 0.3478049999999999 -0.9609820000000001 4.399794000000002 0.7315889999999999 -1.90821 4.081864 0.7199199999999999 -1.9125979999999996 -4.089322 1.9331580000000004 -5.085866 -1.254399 -0.055861999999999995 -3.894865 -173.126185 -72.518611 -8.411731000000001 -10.834353000000004 47.843880000000006 25.326085 -35.0092 -15.094928000000001 1.3685300000000002 7.73569 -14.268718000000003 7.866435000000002 -160.98940300000004 69.05354 20.947756 7.189342999999999 -56.068398 -40.46822199999999 -8.653746 2.912733 -0.204656 16.900898000000005 -5.276362999999999 -41.881747000000004 
-68.32071700000003 84.04689 -1023.6026760000001 90.482842 5.6929479999999995 120.32779799999999 -179.36283 -5.746502 170.186266 -73.33575499999999 6.316664 0.08403099999999997 58.038979000000005 -3.218161 -6.409531 21.454555 0.003109 1.7e-05 148.915281 -6.976305000000002 -174.29783500000002 -38.049355 -2.6024 3.232753 70.396793 -3.3156380000000003 -3.094853000000001 21.454555000000006 -0.003089 -0.0 7.294840000000001 0.6772199999999999 -0.791371 4.567751 1.384924 -1.555732 4.249698000000001 1.3753480000000002 -1.564069 -4.267338 2.3350409999999995 -4.926313 -1.127392 -0.39382300000000003 -3.4699819999999995 -172.989007 -72.90764500000002 -8.555997 -10.166895 49.38288200000001 25.483738 -34.196633 -14.594093000000003 1.3177019999999997 8.749005 -13.878385 6.381597 -160.802187 69.393253 21.137296000000003 3.535801999999999 -56.158836 -36.17802999999999 -10.053192 3.376415000000001 -0.240434 17.254739999999998 -5.699748 -40.558012000000005 
-66.44058200000003 84.540024 -1020.0185690000001 89.033606 5.965806 118.36301199999998 171.745749 -7.177898000000002 173.462189 -82.504239 5.288577 -1.7073939999999996 63.977043 -1.6475090000000001 -6.731265999999999 21.454567 0.0031149999999999997 1.7e-05 150.481703 -9.215607999999998 -174.48421700000003 -39.451296 -2.992534 2.856662 73.392111 -3.0160710000000006 -3.3915320000000007 21.454553000000008 -0.0030930000000000007 -1e-06 7.264523999999999 0.929034 -0.715566 4.505324999999999 1.8850120000000004 -1.3949170000000002 4.187142999999999 1.8764149999999997 -1.4062819999999998 -4.861474 2.907113 -5.242874 -1.079286 -0.41463 -3.4769200000000002 -174.093995 -73.100858 -7.421915999999998 -9.862068 49.941694 27.244989000000007 -33.629089 -14.203816 1.2798869999999998 9.399648 -12.590138 5.578827999999999 -160.94560800000002 69.14625299999999 20.991919 -1.58206 -55.308891 -31.087022 -12.949758000000001 4.147677000000001 -0.30632 16.783549000000008 -5.280263 -39.188791 
